# xmcd
#
# Track frame offsets: 
#        150
#        749
#        18338
#        36765
#        52614
#        69249
#        84026
#        86204
#        100960
#        117364
#        133010
#        150856
#        167567
#        172080
#        190142
#        204288
#        261318
#
# Disc length: 4450 seconds
#
# Revision: 4
# Processed by: cddbd v1.5.2PL0 Copyright (c) Steve Scherf et al.
# Submitted via: ExactAudioCopyFreeDBPlugin 1.0
#
DISCID=cb116011
DTITLE=Jack Orsen - Note 1+
DYEAR=2004
DGENRE=Rap
TTITLE0=Intro
TTITLE1=Gangsta leben feat. Takloss and Justus
TTITLE2=Meine Gegend
TTITLE3=Getto Boys feat. Fumanschu and Justus
TTITLE4=Wir feat. Olli Banjo and Jonesmann
TTITLE5=Der Tod
TTITLE6=Supermarkt (skit)
TTITLE7=Der Milliardär feat. Justus
TTITLE8=Verrückt feat. Azra, Eko Fresh, Manuell and Ramsi Aliani
TTITLE9=Gangsta
TTITLE10=HHHure feat. Justus and Taktloss
TTITLE11=Mummy feat. Chablife
TTITLE12=Casanova (skit)
TTITLE13=Ficktonic feat. Big Derill and Illo
TTITLE14=Bunkerwunder feat. Smexer and Fumanschu
TTITLE15=Ganz egal feat. SRK
TTITLE16=data
EXTD=YEAR: 2004
EXTT0=
EXTT1=
EXTT2=
EXTT3=
EXTT4=
EXTT5=
EXTT6=
EXTT7=
EXTT8=
EXTT9=
EXTT10=
EXTT11=
EXTT12=
EXTT13=
EXTT14=
EXTT15=
EXTT16=
PLAYORDER=
